<?xml version="1.0" encoding="UTF-8" standalone="no"?>
<svg
   width="321"
   height="260"
   viewBox="0 0 321 260"
   fill="none"
   version="1.1"
   id="svg7"
   sodipodi:docname="cloud.svg"
   inkscape:version="1.3.2 (091e20e, 2023-11-25)"
   xmlns:inkscape="http://www.inkscape.org/namespaces/inkscape"
   xmlns:sodipodi="http://sodipodi.sourceforge.net/DTD/sodipodi-0.dtd"
   xmlns="http://www.w3.org/2000/svg"
   xmlns:svg="http://www.w3.org/2000/svg">
  <defs
     id="defs7" />
  <sodipodi:namedview
     id="namedview7"
     pagecolor="#949494"
     bordercolor="#cccccc"
     borderopacity="1"
     inkscape:showpageshadow="0"
     inkscape:pageopacity="1"
     inkscape:pagecheckerboard="0"
     inkscape:deskcolor="#d1d1d1"
     inkscape:zoom="0.73520249"
     inkscape:cx="160.5"
     inkscape:cy="133.29661"
     inkscape:window-width="1680"
     inkscape:window-height="819"
     inkscape:window-x="0"
     inkscape:window-y="43"
     inkscape:window-maximized="0"
     inkscape:current-layer="svg7" />
  <path
     d="m 45.0292,34.9483 -3.4775,-3.4775 c -3.4775,-3.4775 -9.095,-3.3883 -12.4834,0 L 28.9792,31.56 c -3.4775,3.4775 -3.4775,9.095 0,12.4833 l 3.4775,3.4775 c 3.4775,3.4775 9.0058,3.4775 12.4833,0 l 0.0892,-0.0891 c 3.4775,-3.3884 3.4775,-9.095 0,-12.4834 z"
     fill="#ffffff"
     id="path1" />
  <path
     d="M 17.9225,91.6585 H 8.8275 C 3.92333,91.6585 0,95.5815 0,100.4855 v 0.09 c 0,4.904 3.92333,8.827 8.8275,8.827 h 9.0058 c 4.9934,0.089 8.9167,-3.834 8.9167,-8.738 v -0.089 c 0,-4.994 -3.9233,-8.917 -8.8275,-8.917 z"
     fill="#ffffff"
     id="path2" />
  <path
     d="m 98.1725,2.9375 h -0.0892 c -4.9933,0 -8.9166,3.9233 -8.9166,8.8275 v 8.56 c 0,4.9042 3.9233,8.8275 8.8275,8.8275 h 0.0891 C 103.077,29.2417 107,25.3183 107,20.4142 V 11.765 c 0,-4.9042 -3.923,-8.8275 -8.8275,-8.8275 z"
     fill="#ffffff"
     id="path3" />
  <path
     d="m 167.188,31.56 c -3.478,-3.4775 -9.095,-3.4775 -12.573,-0.0892 l -3.477,3.4775 c -3.478,3.4775 -3.478,9.095 0,12.4834 l 0.089,0.0891 c 3.477,3.4775 9.095,3.4775 12.483,0 l 3.478,-3.4775 c 3.477,-3.4775 3.477,-9.0058 0,-12.4833 z"
     fill="#ffffff"
     id="path4" />
  <path
     d="m 98.0833,47.075 c -29.5141,0 -53.5,23.9858 -53.5,53.5005 0,19.131 10.078,35.939 25.2071,45.398 7.2393,-20.972 27.1528,-36.036 50.5846,-36.036 0.922,0 1.839,0.023 2.749,0.069 3.863,-13.708 11.599,-25.793 21.952,-34.9983 C 135.996,58.3757 118.342,47.075 98.0833,47.075 Z"
     fill="#ffffff"
     id="path5" />
  <path
     d="m 28.9792,169.5905 c 3.4775,3.477 9.095,3.477 12.5725,0 l 3.4775,-3.478 c 3.4775,-3.477 3.3883,-9.095 0,-12.483 l -0.0892,-0.089 c -3.4775,-3.478 -9.095,-3.478 -12.5725,0 l -3.4775,3.477 c -3.3883,3.567 -3.3883,9.095 0.0892,12.573 z"
     fill="#ffffff"
     id="path6" />
  <path
     d="M 93.625,257.0625 H 267.5 c 29.547,0 53.5,-23.953 53.5,-53.5 0,-25.094 -17.276,-46.152 -40.583,-51.93 0.303,-2.711 0.458,-5.466 0.458,-8.257 0,-40.628 -32.935,-73.563 -73.563,-73.563 -33.697,0 -62.103,22.658 -70.813,53.569 -0.91,-0.046 -1.827,-0.069 -2.749,-0.069 -29.547,0 -53.5,23.953 -53.5,53.5 0,0.759 0.0158,1.515 0.0471,2.267 -15.609,5.495 -26.7971,20.37 -26.7971,37.858 0,22.16 17.9646,40.125 40.125,40.125 z"
     fill="#ffffff"
     id="path7" />
</svg>
