<?xml version="1.0" encoding="UTF-8" standalone="no"?>
<svg
   width="30"
   height="30"
   viewBox="0 0 30 30"
   fill="none"
   version="1.1"
   id="svg1"
   sodipodi:docname="sun.svg"
   inkscape:version="1.3.2 (091e20e, 2023-11-25)"
   xmlns:inkscape="http://www.inkscape.org/namespaces/inkscape"
   xmlns:sodipodi="http://sodipodi.sourceforge.net/DTD/sodipodi-0.dtd"
   xmlns="http://www.w3.org/2000/svg"
   xmlns:svg="http://www.w3.org/2000/svg">
  <defs
     id="defs1" />
  <sodipodi:namedview
     id="namedview1"
     pagecolor="#8b8b8b"
     bordercolor="#cccccc"
     borderopacity="1"
     inkscape:showpageshadow="0"
     inkscape:pageopacity="1"
     inkscape:pagecheckerboard="0"
     inkscape:deskcolor="#d1d1d1"
     inkscape:zoom="7.8666667"
     inkscape:cx="14.936441"
     inkscape:cy="15"
     inkscape:window-width="1680"
     inkscape:window-height="819"
     inkscape:window-x="0"
     inkscape:window-y="43"
     inkscape:window-maximized="0"
     inkscape:current-layer="svg1" />
  <path
     d="M 7.72758,5.9596338 7.250501,5.4805886 c -0.4770784,-0.4790352 -1.247749,-0.4667488 -1.7126004,0 l -0.01223,0.012284 c -0.4770787,0.4790446 -0.4770787,1.2528747 0,1.7196338 L 6.0027515,7.691553 c 0.477079,0.4790352 1.235512,0.4790352 1.712601,0 L 7.727581,7.6792687 C 8.20466,7.2125099 8.20466,6.4263937 7.72758,5.9596338 Z M 4.008797,13.771696 H 2.761048 C 2.0882446,13.771696 1.55,14.312142 1.55,14.987676 V 15 c 0,0.675534 0.5382446,1.21598 1.211048,1.21598 h 1.2355214 c 0.6850404,0.0123 1.223285,-0.528122 1.223285,-1.203656 V 15 c 0,-0.687858 -0.5382446,-1.228304 -1.2110574,-1.228304 z M 15.018392,1.55 h -0.01221 c -0.685118,0 -1.223312,0.5404554 -1.223312,1.216027 v 1.1791784 c 0,0.6755716 0.538194,1.2160264 1.210988,1.2160264 h 0.0123 c 0.685022,0.012286 1.223216,-0.528169 1.223216,-1.2037406 V 2.766027 C 16.22938,2.0904554 15.691186,1.55 15.018392,1.55 Z m 9.468212,3.942875 C 24.009448,5.0138398 23.238832,5.0138398 22.761776,5.4805886 L 22.28462,5.9596338 c -0.477062,0.4790452 -0.477062,1.252875 0,1.7196338 l 0.0122,0.012284 c 0.477156,0.4790352 1.247772,0.4790352 1.712604,0 L 24.48658,7.2125068 c 0.477056,-0.4790352 0.477056,-1.2405892 0,-1.7196338 z m -2.214214,18.547483 0.477156,0.479014 c 0.477062,0.479114 1.247672,0.479114 1.724828,0 0.477062,-0.479014 0.477062,-1.252858 0,-1.731872 l -0.477156,-0.479014 c -0.477056,-0.479114 -1.247672,-0.46679 -1.712598,0 -0.489286,0.491244 -0.489286,1.252852 -0.01223,1.731872 z m 2.519992,-9.052682 V 15 c 0,0.675534 0.538294,1.21598 1.211088,1.21598 h 1.235442 C 27.911806,16.21598 28.45,15.675534 28.45,15 v -0.0123 c 0,-0.675534 -0.538194,-1.21598 -1.211088,-1.21598 H 26.00347 c -0.672794,0 -1.211088,0.540446 -1.211088,1.21598 z m -9.78622,-7.3575422 c -4.049088,0 -7.3397476,3.3041502 -7.3397476,7.3698662 0,4.065716 3.2906596,7.369818 7.3397476,7.369818 4.048988,0 7.33969,-3.304102 7.33969,-7.369818 0,-4.065716 -3.290702,-7.3698662 -7.33969,-7.3698662 z M 14.993838,28.45 h 0.0123 c 0.672794,0 1.210988,-0.540446 1.210988,-1.216074 v -1.179102 c 0,-0.675628 -0.538194,-1.216074 -1.210988,-1.216074 h -0.0123 c -0.672794,0 -1.210988,0.540446 -1.210988,1.216074 v 1.179102 c 0,0.675628 0.538194,1.216074 1.210988,1.216074 z M 5.525673,24.507142 c 0.477079,0.47902 1.2477496,0.47902 1.724828,0 L 7.72758,24.028128 c 0.477079,-0.479114 0.4648514,-1.252952 0,-1.719642 l -0.012228,-0.0123 c -0.477089,-0.47902 -1.2477495,-0.47902 -1.724838,0 l -0.477078,0.47899 c -0.4648414,0.491338 -0.4648414,1.252952 0.012237,1.731966 z"
     fill="#ffffff"
     fill-opacity="0.8"
     id="path1"
     style="stroke-width:0.978184" />
</svg>
