<?xml version="1.0" encoding="UTF-8" standalone="no"?>
<svg
   width="300"
   height="183.26186"
   viewBox="0 0 300 183.26186"
   fill="none"
   version="1.1"
   id="svg2"
   xmlns="http://www.w3.org/2000/svg"
   xmlns:svg="http://www.w3.org/2000/svg">
  <defs
     id="defs1" />
  <path
     style="color:#000000;display:inline;fill:#ffffff;fill-opacity:0.3;stroke-width:0.923077;-inkscape-stroke:none"
     d="m 0.46154049,64.646458 c 0,0 50.30769251,-35.222677 61.38461551,-36 10.153846,-0.712431 79.846154,49.846154 79.846154,49.846154 0,0 59.53846,-76.6154491 74.76923,-78.00002759 15.23077,-1.38458766 83.07692,44.30771959 83.07692,44.30771959 V 183.26184 H 0.46154049 Z"
     id="path4" />
  <path
     id="path9"
     style="color:#000000;display:inline;fill:#ffffff;fill-opacity:0.6;stroke-width:0.923077;-inkscape-stroke:none"
     d="m 216.42007,0.03366883 c -2.08144,0.18921672 -4.70013,1.58531127 -7.8137,3.83293267 -3.11355,2.2476214 -6.70104,5.3655314 -10.57211,9.0631005 -7.74213,7.39514 -16.61741,17.110605 -25.01683,26.780048 C 156.46108,58.769456 142.02501,77.321046 141.60397,77.862394 141.05168,77.462001 124.23237,65.272226 105.83474,52.919486 96.484172,46.641233 86.815348,40.384889 78.838341,35.736193 74.849838,33.411844 71.284356,31.488508 68.383413,30.163476 65.48247,28.838446 63.291418,28.08203 61.813702,28.185712 58.82601,28.395374 53.652151,30.774406 47.361779,34.194726 41.071406,37.615044 33.73714,42.093378 26.751202,46.548091 12.779325,55.45752 0.19651442,64.268645 0.19651442,64.268645 L 0,64.405663 v 0.241587 0.178486 h 0.9230769 v 0.0631 c 0.3025001,-0.211663 12.5454771,-8.77467 26.3257211,-17.5619 6.975559,-4.448093 14.295219,-8.920181 20.552884,-12.322716 6.257666,-3.402534 11.526171,-5.718236 14.076924,-5.897235 1.060737,-0.07443 3.268748,0.593115 6.122596,1.896634 2.853848,1.303521 6.398984,3.214127 10.371995,5.529448 7.946022,4.630639 17.604225,10.880343 26.945913,17.152644 18.68339,12.544602 36.10276,25.180889 36.10276,25.180889 l 0.36059,0.261418 0.27403,-0.351562 c 0,0 14.87887,-19.147876 31.65685,-38.46274 8.38899,-9.657433 17.25418,-19.35552 24.95914,-26.715144 3.85246,-3.6798127 7.41525,-6.7746819 10.47295,-8.9819716 3.05771,-2.2072897 5.63133,-3.5083376 7.35757,-3.66526439 1.7745,-0.161314 4.46961,0.37819029 7.75421,1.48557699 3.28462,1.1073866 7.17009,2.7708294 11.41046,4.8100961 8.48075,4.0785339 18.38178,9.6548889 27.80769,15.2758409 18.6747,11.136292 35.28732,22.315545 35.60156,22.527043 v -0.02506 H 300 V 44.5541 l -0.20372,-0.137019 c 0,0 -16.96971,-11.427666 -35.84856,-22.685697 C 254.5083,16.102369 244.59193,10.515216 236.0679,6.4158804 231.80592,4.3662131 227.89206,2.6870981 224.55108,1.5607121 221.21012,0.43432616 218.45327,-0.1511632 216.42007,0.03366883 Z" />
</svg>
