<?xml version="1.0" encoding="UTF-8" standalone="no"?>
<svg
   width="30"
   height="30"
   viewBox="0 0 30 30"
   fill="none"
   version="1.1"
   id="svg5"
   sodipodi:docname="rain.svg"
   inkscape:version="1.3.2 (091e20e, 2023-11-25)"
   xmlns:inkscape="http://www.inkscape.org/namespaces/inkscape"
   xmlns:sodipodi="http://sodipodi.sourceforge.net/DTD/sodipodi-0.dtd"
   xmlns="http://www.w3.org/2000/svg"
   xmlns:svg="http://www.w3.org/2000/svg">
  <defs
     id="defs5" />
  <sodipodi:namedview
     id="namedview5"
     pagecolor="#646464"
     bordercolor="#cccccc"
     borderopacity="1"
     inkscape:showpageshadow="0"
     inkscape:pageopacity="1"
     inkscape:pagecheckerboard="0"
     inkscape:deskcolor="#d1d1d1"
     inkscape:zoom="8.4285714"
     inkscape:cx="13.881356"
     inkscape:cy="14"
     inkscape:window-width="1680"
     inkscape:window-height="819"
     inkscape:window-x="0"
     inkscape:window-y="43"
     inkscape:window-maximized="0"
     inkscape:current-layer="svg5" />
  <path
     d="M 6.2499722,20.624963 H 22.500054 c 2.761405,0 4.999949,-2.238539 4.999949,-4.999942 0,-2.345255 -1.61454,-4.313375 -3.792763,-4.853376 0.0282,-0.253284 0.04272,-0.510751 0.04272,-0.7716769 0,-3.796969 -3.078007,-6.8750211 -6.874951,-6.8750211 -3.149372,0 -5.804062,2.1175456 -6.618094,5.0065007 -0.0851,-0.00435 -0.170773,-0.00655 -0.2569627,-0.00655 -2.7614293,0 -5.0000058,2.2385773 -5.0000058,4.9999723 0,0.07098 0.00159,0.141646 0.00447,0.211829 -1.4587986,0.513636 -2.5044199,1.903821 -2.5044199,3.538184 0,2.071078 1.6789459,3.750012 3.7500138,3.750012 z"
     fill="#ffffff"
     fill-opacity="0.6"
     id="path1"
     style="fill:#ffffff;fill-opacity:1;stroke-width:1.0715" />
  <path
     d="m 9.2682181,21.875002 c -0.3176039,0 -0.6079621,0.179466 -0.750002,0.463501 l -1.6614811,3.32294 c -0.2787652,0.557573 0.1266649,1.21361 0.7500027,1.21361 0.3176156,0 0.607963,-0.179464 0.7500028,-0.463609 l 1.6614755,-3.32294 C 10.296995,22.53104 9.8915743,21.875002 9.2682181,21.875002 Z"
     fill="#ffffff"
     fill-opacity="0.6"
     id="path2"
     style="fill:#ffffff;fill-opacity:1;stroke-width:1.0715" />
  <path
     d="m 13.018196,21.875002 c 0.623366,0 1.028798,0.656038 0.750004,1.213502 l -1.661469,3.32294 c -0.141957,0.284145 -0.432326,0.463609 -0.750003,0.463609 -0.623357,0 -1.02875,-0.656037 -0.749982,-1.21361 l 1.661448,-3.32294 c 0.142082,-0.284035 0.432431,-0.463501 0.750002,-0.463501 z"
     fill="#ffffff"
     fill-opacity="0.6"
     id="path3"
     style="fill:#ffffff;fill-opacity:1;stroke-width:1.0715" />
  <path
     d="m 20.518229,21.875002 c 0.623355,0 1.028788,0.656038 0.750002,1.213502 l -1.66147,3.32294 c -0.141966,0.284145 -0.432322,0.463609 -0.750004,0.463609 -0.62336,0 -1.028786,-0.656037 -0.75,-1.21361 l 1.661471,-3.32294 c 0.142069,-0.284035 0.432428,-0.463501 0.750001,-0.463501 z"
     fill="#ffffff"
     fill-opacity="0.6"
     id="path4"
     style="fill:#ffffff;fill-opacity:1;stroke-width:1.0715" />
  <path
     d="m 16.768218,21.875002 c 0.623353,0 1.028788,0.656038 0.750003,1.213502 l -1.66147,3.32294 c -0.141967,0.284145 -0.432329,0.463609 -0.750003,0.463609 -0.623367,0 -1.028795,-0.656037 -0.750002,-1.21361 l 1.66147,-3.32294 c 0.14207,-0.284035 0.432421,-0.463501 0.750002,-0.463501 z"
     fill="#ffffff"
     fill-opacity="0.6"
     id="path5"
     style="fill:#ffffff;fill-opacity:1;stroke-width:1.0715" />
</svg>
