<svg width="30" height="30" viewBox="0 0 30 30" fill="none" xmlns="http://www.w3.org/2000/svg">
<g clip-path="url(#clip0_1_3136)">
<path d="M3.88333 2.66667L4.20833 2.99167C4.53333 3.30833 4.53333 3.84167 4.20833 4.15833L4.2 4.16667C3.875 4.49167 3.35833 4.49167 3.03333 4.16667L2.70833 3.84167C2.38333 3.525 2.38333 3 2.70833 2.675L2.71667 2.66667C3.03333 2.35 3.55833 2.34167 3.88333 2.66667Z" fill="white" fill-opacity="0.8"/>
<path d="M0.825 8.29167H1.675C2.13333 8.29167 2.5 8.65833 2.5 9.125V9.13333C2.5 9.59167 2.13333 9.95833 1.66667 9.95H0.825C0.366667 9.95 0 9.58333 0 9.125V9.11667C0 8.65833 0.366667 8.29167 0.825 8.29167Z" fill="white" fill-opacity="0.8"/>
<path d="M9.16667 0H9.175C9.63333 0 10 0.366667 10 0.825V1.63333C10 2.09167 9.63333 2.45833 9.16667 2.45H9.15833C8.7 2.45 8.33333 2.08333 8.33333 1.625V0.825C8.33333 0.366667 8.7 0 9.16667 0Z" fill="white" fill-opacity="0.8"/>
<path d="M14.45 2.66667C14.775 2.35 15.3 2.35 15.625 2.675C15.95 3 15.95 3.51667 15.625 3.84167L15.3 4.16667C14.9833 4.49167 14.4583 4.49167 14.1333 4.16667L14.125 4.15833C13.8 3.84167 13.8 3.31667 14.125 2.99167L14.45 2.66667Z" fill="white" fill-opacity="0.8"/>
<path d="M4.16667 9.125C4.16667 6.36667 6.40833 4.125 9.16667 4.125C11.06 4.125 12.7099 5.18114 13.5585 6.73558C12.5909 7.59592 11.8679 8.72535 11.507 10.0065C11.4219 10.0022 11.3362 10 11.25 10C9.06011 10 7.19904 11.4078 6.52247 13.3678C5.10854 12.4838 4.16667 10.913 4.16667 9.125Z" fill="white" fill-opacity="0.8"/>
<path d="M3.88333 15.575C3.55833 15.9 3.03333 15.9 2.70833 15.575C2.38333 15.25 2.38333 14.7333 2.7 14.4L3.025 14.075C3.35 13.75 3.875 13.75 4.2 14.075L4.20833 14.0833C4.525 14.4 4.53333 14.925 4.20833 15.25L3.88333 15.575Z" fill="white" fill-opacity="0.8"/>
<path d="M25 23.75H8.75C6.67893 23.75 5 22.0711 5 20C5 18.3656 6.04561 16.9754 7.50441 16.4618C7.50148 16.3916 7.5 16.321 7.5 16.25C7.5 13.4886 9.73858 11.25 12.5 11.25C12.5862 11.25 12.6719 11.2522 12.757 11.2565C13.571 8.36754 16.2257 6.25 19.375 6.25C23.172 6.25 26.25 9.32804 26.25 13.125C26.25 13.3859 26.2355 13.6434 26.2072 13.8967C28.3854 14.4367 30 16.4048 30 18.75C30 21.5114 27.7614 23.75 25 23.75Z" fill="white" fill-opacity="0.8"/>
<path d="M12.4818 28.7865L14.1432 25.4635C14.2853 25.1794 14.5756 25 14.8932 25C15.5166 25 15.922 25.656 15.6432 26.2135L13.9818 29.5365C13.8397 29.8206 13.5494 30 13.2318 30C12.6084 30 12.203 29.344 12.4818 28.7865Z" fill="white" fill-opacity="0.8"/>
<path d="M16.2318 28.7865L17.8932 25.4635C18.0353 25.1794 18.3256 25 18.6432 25C19.2666 25 19.672 25.656 19.3932 26.2135L17.7318 29.5365C17.5897 29.8206 17.2994 30 16.9818 30C16.3584 30 15.953 29.344 16.2318 28.7865Z" fill="white" fill-opacity="0.8"/>
</g>
<defs>
<clipPath id="clip0_1_3136">
<rect width="30" height="30" fill="white"/>
</clipPath>
</defs>
</svg>
